<svg width="24" height="24" viewBox="0 0 24 24" fill="none" xmlns="http://www.w3.org/2000/svg">
<g clip-path="url(#clip0_8004_1251)">
<path d="M23.8448 7.66815C23.8448 7.66815 23.6087 6.00167 22.8817 5.26993C21.9611 4.30686 20.932 4.30214 20.4599 4.24549C17.0797 4 12.0047 4 12.0047 4H11.9953C11.9953 4 6.92032 4 3.54015 4.24549C3.06806 4.30214 2.0389 4.30686 1.11832 5.26993C0.391302 6.00167 0.159977 7.66815 0.159977 7.66815C0.159977 7.66815 -0.0855103 9.62733 -0.0855103 11.5818V13.4135C-0.0855103 15.368 0.155256 17.3271 0.155256 17.3271C0.155256 17.3271 0.391302 18.9936 1.1136 19.7254C2.03418 20.6884 3.24273 20.6554 3.78092 20.7592C5.71649 20.9433 12 21 12 21C12 21 17.0797 20.9906 20.4599 20.7498C20.932 20.6931 21.9611 20.6884 22.8817 19.7254C23.6087 18.9936 23.8448 17.3271 23.8448 17.3271C23.8448 17.3271 24.0856 15.3727 24.0856 13.4135V11.5818C24.0856 9.62733 23.8448 7.66815 23.8448 7.66815ZM9.50266 15.637V8.84365L16.0317 12.2522L9.50266 15.637Z" fill="#332115"/>
</g>
<defs>
<clipPath id="clip0_8004_1251">
<rect width="24" height="24" fill="white"/>
</clipPath>
</defs>
</svg>
